<svg height="739" viewBox="0 0 841.54746 739" width="841.54746" xmlns="http://www.w3.org/2000/svg"><circle cx="413.35274" cy="389" r="269.5" style="fill:none;stroke:#3ad29f;stroke-miterlimit:10;stroke-width:5;stroke-dasharray:12;opacity:.4"/><circle cx="413.35274" cy="389" r="205.5" style="fill:none;stroke:#3ad29f;stroke-miterlimit:10;stroke-width:5;stroke-dasharray:12;opacity:.4"/><path d="m947.579 505a1.5009 1.5009 0 0 0 0-3 1.5009 1.5009 0 0 0 0 3z" fill="#f5f5f5" transform="translate(-179.22627 -80.5)"/><path d="m957.71993 736.67527a10.8925 10.8925 0 0 0 -14.20551 1.32243 11.12693 11.12693 0 0 0 .44178 15.50909l13.58 13.50407a2.267 2.267 0 0 0 3.206-.009l13.50408-13.58a11.12692 11.12692 0 0 0 .35481-15.51131 10.8925 10.8925 0 0 0 -14.21271-1.24276 2.28592 2.28592 0 0 1 -2.66845.00748z" fill="#3fdaf4" opacity=".5" transform="translate(-179.22627 -80.5)"/><path d="m239.71993 695.67527a10.8925 10.8925 0 0 0 -14.20551 1.32243 11.12693 11.12693 0 0 0 .44178 15.50909l13.58 13.50407a2.267 2.267 0 0 0 3.206-.009l13.50408-13.58a11.12692 11.12692 0 0 0 .35481-15.51131 10.8925 10.8925 0 0 0 -14.21271-1.24276 2.28592 2.28592 0 0 1 -2.66845.00748z" fill="#3fdaf4" opacity=".5" transform="translate(-179.22627 -80.5)"/><path d="m275.71993 150.67527a10.8925 10.8925 0 0 0 -14.20551 1.32243 11.12693 11.12693 0 0 0 .44178 15.50909l13.58 13.50407a2.267 2.267 0 0 0 3.206-.009l13.50408-13.58a11.12692 11.12692 0 0 0 .35481-15.51131 10.8925 10.8925 0 0 0 -14.21271-1.24276 2.28592 2.28592 0 0 1 -2.66845.00748z" fill="#3fdaf4" opacity=".5" transform="translate(-179.22627 -80.5)"/><path d="m831.71993 106.67527a10.8925 10.8925 0 0 0 -14.20551 1.32243 11.12693 11.12693 0 0 0 .44178 15.50909l13.58 13.50407a2.267 2.267 0 0 0 3.206-.009l13.50408-13.58a11.12692 11.12692 0 0 0 .35481-15.51131 10.8925 10.8925 0 0 0 -14.21271-1.24276 2.28592 2.28592 0 0 1 -2.66845.00748z" fill="#3fdaf4" opacity=".5" transform="translate(-179.22627 -80.5)"/><g fill="#3ad29f" opacity=".5"><path d="m469.35274 0h3v17h-3z"/><path d="m648.57901 80.5h3v17h-3z" transform="matrix(0 1 -1 0 559.85274 -641.57901)"/></g><g fill="#3ad29f" opacity=".5"><path d="m33.35274 218h3v17h-3z"/><path d="m212.57901 298.5h3v17h-3z" transform="matrix(0 1 -1 0 341.85274 12.42099)"/></g><g fill="#3ad29f" opacity=".5"><path d="m594.35274 722h3v17h-3z"/><path d="m773.57901 802.5h3v17h-3z" transform="matrix(0 1 -1 0 1406.85274 -44.57901)"/></g><g fill="#3ad29f" opacity=".5"><path d="m43.35274 497h3v17h-3z"/><path d="m222.57901 577.5h3v17h-3z" transform="matrix(0 1 -1 0 630.85274 281.42099)"/></g><g fill="#3ad29f" opacity=".5"><path d="m229.35274 522h3v17h-3z"/><path d="m408.57901 602.5h3v17h-3z" transform="matrix(0 1 -1 0 841.85274 120.42099)"/></g><path d="m352.674 751.38762a3.67459 3.67459 0 0 1 -2.04748-4.441 1.766 1.766 0 0 0 .0799-.40754 1.84257 1.84257 0 0 0 -3.31045-1.22119 1.76584 1.76584 0 0 0 -.2039.3618 3.67459 3.67459 0 0 1 -4.441 2.04748 1.766 1.766 0 0 0 -.40754-.0799 1.84257 1.84257 0 0 0 -1.22119 3.31045 1.7661 1.7661 0 0 0 .3618.2039 3.67459 3.67459 0 0 1 2.04748 4.441 1.76655 1.76655 0 0 0 -.0799.40754 1.84257 1.84257 0 0 0 3.31045 1.22119 1.7661 1.7661 0 0 0 .2039-.3618 3.67459 3.67459 0 0 1 4.441-2.04748 1.766 1.766 0 0 0 .40754.0799 1.84257 1.84257 0 0 0 1.22119-3.31045 1.76618 1.76618 0 0 0 -.3618-.2039z" fill="#f55f44" opacity=".5" transform="translate(-179.22627 -80.5)"/><path d="m600.674 717.38762a3.67459 3.67459 0 0 1 -2.04748-4.441 1.766 1.766 0 0 0 .0799-.40754 1.84257 1.84257 0 0 0 -3.31045-1.22119 1.76584 1.76584 0 0 0 -.2039.3618 3.67459 3.67459 0 0 1 -4.441 2.04748 1.766 1.766 0 0 0 -.40754-.0799 1.84257 1.84257 0 0 0 -1.22119 3.31045 1.7661 1.7661 0 0 0 .3618.2039 3.67459 3.67459 0 0 1 2.04748 4.441 1.76655 1.76655 0 0 0 -.0799.40754 1.84257 1.84257 0 0 0 3.31045 1.22119 1.7661 1.7661 0 0 0 .2039-.3618 3.67459 3.67459 0 0 1 4.441-2.04748 1.766 1.766 0 0 0 .40754.0799 1.84257 1.84257 0 0 0 1.22119-3.31045 1.76618 1.76618 0 0 0 -.3618-.2039z" fill="#3ad29f" opacity=".5" transform="translate(-179.22627 -80.5)"/><path d="m696.674 249.38762a3.67459 3.67459 0 0 1 -2.04748-4.441 1.766 1.766 0 0 0 .0799-.40754 1.84257 1.84257 0 0 0 -3.31045-1.22119 1.76584 1.76584 0 0 0 -.2039.3618 3.67459 3.67459 0 0 1 -4.441 2.04748 1.766 1.766 0 0 0 -.40754-.0799 1.84257 1.84257 0 0 0 -1.22119 3.31045 1.7661 1.7661 0 0 0 .3618.2039 3.67459 3.67459 0 0 1 2.04748 4.441 1.76655 1.76655 0 0 0 -.0799.40754 1.84257 1.84257 0 0 0 3.31045 1.22119 1.7661 1.7661 0 0 0 .2039-.3618 3.67459 3.67459 0 0 1 4.441-2.04748 1.766 1.766 0 0 0 .40754.0799 1.84257 1.84257 0 0 0 1.22119-3.31045 1.76618 1.76618 0 0 0 -.3618-.2039z" fill="#f55f44" opacity=".5" transform="translate(-179.22627 -80.5)"/><path d="m953.674 255.38762a3.67459 3.67459 0 0 1 -2.04748-4.441 1.766 1.766 0 0 0 .0799-.40754 1.84257 1.84257 0 0 0 -3.31045-1.22119 1.76584 1.76584 0 0 0 -.2039.3618 3.67459 3.67459 0 0 1 -4.441 2.04748 1.766 1.766 0 0 0 -.40754-.0799 1.84257 1.84257 0 0 0 -1.22119 3.31045 1.7661 1.7661 0 0 0 .3618.2039 3.67459 3.67459 0 0 1 2.04748 4.441 1.76655 1.76655 0 0 0 -.0799.40754 1.84257 1.84257 0 0 0 3.31045 1.22119 1.7661 1.7661 0 0 0 .2039-.3618 3.67459 3.67459 0 0 1 4.441-2.04748 1.766 1.766 0 0 0 .40754.0799 1.84257 1.84257 0 0 0 1.22119-3.31045 1.76618 1.76618 0 0 0 -.3618-.2039z" fill="#f55f44" opacity=".5" transform="translate(-179.22627 -80.5)"/><path d="m583.674 530.38762a3.67459 3.67459 0 0 1 -2.04748-4.441 1.766 1.766 0 0 0 .0799-.40754 1.84257 1.84257 0 0 0 -3.31045-1.22119 1.76584 1.76584 0 0 0 -.2039.3618 3.67459 3.67459 0 0 1 -4.441 2.04748 1.766 1.766 0 0 0 -.40754-.0799 1.84257 1.84257 0 0 0 -1.22119 3.31045 1.7661 1.7661 0 0 0 .3618.2039 3.67459 3.67459 0 0 1 2.04748 4.441 1.76655 1.76655 0 0 0 -.0799.40754 1.84257 1.84257 0 0 0 3.31045 1.22119 1.7661 1.7661 0 0 0 .2039-.3618 3.67459 3.67459 0 0 1 4.441-2.04748 1.766 1.766 0 0 0 .40754.0799 1.84257 1.84257 0 0 0 1.22119-3.31045 1.76618 1.76618 0 0 0 -.3618-.2039z" fill="#f55f44" opacity=".5" transform="translate(-179.22627 -80.5)"/><path d="m1019.674 104.38762a3.67459 3.67459 0 0 1 -2.04748-4.441 1.766 1.766 0 0 0 .0799-.40754 1.84257 1.84257 0 0 0 -3.31045-1.22119 1.76584 1.76584 0 0 0 -.2039.3618 3.67459 3.67459 0 0 1 -4.441 2.04748 1.766 1.766 0 0 0 -.40754-.0799 1.84257 1.84257 0 0 0 -1.22119 3.31045 1.7661 1.7661 0 0 0 .3618.2039 3.67459 3.67459 0 0 1 2.04748 4.441 1.76655 1.76655 0 0 0 -.0799.40754 1.84257 1.84257 0 0 0 3.31045 1.22119 1.7661 1.7661 0 0 0 .2039-.3618 3.67459 3.67459 0 0 1 4.441-2.04748 1.766 1.766 0 0 0 .40754.0799 1.84257 1.84257 0 0 0 1.22119-3.31045 1.76618 1.76618 0 0 0 -.3618-.2039z" fill="#f55f44" opacity=".5" transform="translate(-179.22627 -80.5)"/><path d="m887.25969 378.02387-13.72364-77.79887-282.63634 49.85679 53.87963 305.44173a55.84252 55.84252 0 0 0 64.69426 45.29267l172.6494-30.45519a55.84252 55.84252 0 0 0 45.29268-64.69426l-6.45489-36.59252a97 97 0 1 0 -33.7011-191.05035zm29.70561 168.4-25.71012-145.7497a74 74 0 1 1 25.71012 145.74975z" fill="#dbe8fc" transform="translate(-179.22627 -80.5)"/><path d="m631.32862 333.66233h221v138h-221z" fill="#fff" transform="matrix(.98479563 -.17371693 .17371693 .98479563 -237.89652 54.49048)"/><g transform="translate(-179.22627 -80.5)"><path d="m887.47594 293.52748c-6.4103-21.98565-78.44263-20.32136-160.88879 3.71729s-144.08535 61.34867-137.675 83.33431c3.90965 13.40908 32.23684 18.01553 72.44176 14.11929a25.9102 25.9102 0 0 0 46.85862 20.23563c9.6526 19.62718 25.51454 31.40348 39.09444 27.444 14.86246-4.33341 21.90563-26.02824 17.28425-50.39061 7.486 5.85407 15.93519 8.31037 23.77123 6.02563 9.55413-2.78568 16.08842-12.00345 18.49958-24.07042 6.02262 3.22 12.39514 4.26433 18.40721 2.51141 7.70417-2.24629 13.449-8.67237 16.64974-17.40334 6.35755 17.30671 21.00785 28.01995 33.93828 24.24985 13.741-4.00643 20.33331-22.84931 14.7243-42.08674-2.97827-10.21468-8.79785-18.48636-15.65863-23.39909 9.88971-9.013 14.56056-17.40186 12.55301-24.28721z" opacity=".03"/><path d="m884.57422 283.57535c-6.4103-21.98565-78.44263-20.32135-160.88879 3.71729s-144.08535 61.34867-137.675 83.33432c3.90965 13.40907 32.23683 18.01553 72.44176 14.11928a25.9102 25.9102 0 0 0 46.85866 20.23561c9.6526 19.62718 25.51454 31.40349 39.09444 27.444 14.86246-4.33341 21.90563-26.02824 17.28425-50.39061 7.486 5.85408 15.93518 8.31037 23.77123 6.02563 9.55413-2.78568 16.08842-12.00345 18.49958-24.07042 6.02262 3.22 12.39514 4.26434 18.40721 2.51141 7.70417-2.24629 13.449-8.67237 16.64974-17.40334 6.35755 17.30671 21.00785 28.01995 33.93828 24.24986 13.741-4.00644 20.33331-22.84932 14.7243-42.08675-2.97827-10.21467-8.79785-18.48636-15.65863-23.39909 9.88967-9.01298 14.56052-17.40184 12.55297-24.28719z" fill="#fafafa"/><path d="m633.35614 423.82765s47.96626-21.66191 98.47836-.109 119.1615-38.28246 119.1615-38.28246l11.6308 65.93481-151.94144 48.17449-44.43081-4.34771z" fill="#3fdaf4"/><path d="m633.35614 423.82765s47.96626-21.66191 98.47836-.109 119.1615-38.28246 119.1615-38.28246l11.6308 65.93481-151.94144 48.17449-44.43081-4.34771z" opacity=".05"/><path d="m893.55664 626.71112-217.63983 38.39146-42.56067-241.27493q109.39038 58.6913 217.63986-38.39146z" fill="#3fdaf4"/><g fill="#fafafa"><path d="m672.86638 477.09052c-4.3241 1.26077-2.37186 7.983 1.95939 6.72018 4.32409-1.26077 2.37186-7.98303-1.95939-6.72018z"/><path d="m770.98773 613.11332c-4.3241 1.26076-2.37186 7.983 1.95938 6.72017 4.3241-1.26076 2.37189-7.98303-1.95938-6.72017z"/><path d="m722.15768 560.80054c-4.3241 1.26077-2.37186 7.983 1.95938 6.72018 4.3241-1.26072 2.37186-7.98303-1.95938-6.72018z"/><path d="m758.59871 502.585c-4.3241 1.26077-2.37186 7.983 1.95938 6.72018 4.3241-1.26079 2.37191-7.98305-1.95938-6.72018z"/><path d="m845.72556 466.90711c-4.3241 1.26076-2.37186 7.983 1.95939 6.72017 4.3241-1.26076 2.37186-7.98303-1.95939-6.72017z"/></g><path d="m180.71732 357.69849a97.00008 97.00008 0 0 0 78.67462 112.37573l-6.45488 36.59252a55.84252 55.84252 0 0 0 45.29267 64.69426l172.6494 30.45519a55.84252 55.84252 0 0 0 64.69427-45.29267l53.8796-305.44173-282.63631-49.85679-13.72369 77.79887a97 97 0 0 0 -112.37568 78.67462zm22.6503 3.99549a73.99994 73.99994 0 0 1 85.72993-60.01981l-25.71012 145.74975a74 74 0 0 1 -60.01981-85.72992z" fill="#dbe8fc"/></g><path d="m328.02411 234.66233h221v138h-221z" fill="#fff" transform="matrix(-.9848 -.17372 .17372 -.9848 638.40315 598.38676)"/><g transform="translate(-179.22627 -80.5)"><path d="m292.87679 194.52748c6.41031-21.98565 78.44264-20.32136 160.8888 3.71729s144.08535 61.34867 137.675 83.33431c-3.90966 13.40908-32.23684 18.01553-72.44176 14.11929a25.9102 25.9102 0 0 1 -46.85862 20.23563c-9.65261 19.62718-25.51455 31.40348-39.09445 27.444-14.86245-4.33341-21.90563-26.02824-17.28425-50.39061-7.486 5.85407-15.93518 8.31037-23.77122 6.02563-9.55413-2.78568-16.08843-12.00345-18.49958-24.07042-6.02262 3.22-12.39515 4.26433-18.40722 2.51141-7.70416-2.24629-13.449-8.67237-16.64974-17.40334-6.35755 17.30671-21.00785 28.01995-33.93827 24.24985-13.741-4.00643-20.33332-22.84931-14.7243-42.08674 2.97827-10.21468 8.79785-18.48636 15.65862-23.39909-9.88971-9.013-14.56056-17.40186-12.55301-24.28721z" opacity=".03"/><path d="m295.77851 184.57535c6.41031-21.98565 78.44264-20.32135 160.8888 3.71729s144.08535 61.34867 137.675 83.33432c-3.90966 13.40907-32.23684 18.01553-72.44176 14.11928a25.9102 25.9102 0 0 1 -46.85866 20.23561c-9.65261 19.62718-25.51455 31.40349-39.09445 27.444-14.86245-4.33341-21.90563-26.02824-17.28425-50.39061-7.486 5.85408-15.93518 8.31037-23.77122 6.02563-9.55413-2.78568-16.08843-12.00345-18.49958-24.07042-6.02262 3.22-12.39515 4.26434-18.40722 2.51141-7.70416-2.24629-13.449-8.67237-16.64974-17.40334-6.35755 17.30671-21.00785 28.01995-33.93827 24.24986-13.741-4.00644-20.33332-22.84932-14.7243-42.08675 2.97827-10.21467 8.79785-18.48636 15.65862-23.39909-9.88967-9.01298-14.56048-17.40184-12.55297-24.28719z" fill="#fafafa"/><path d="m546.99659 324.82765s-47.96625-21.66191-98.47836-.109-119.16147-38.28244-119.16147-38.28244l-11.63083 65.93479 151.94144 48.17452 44.43082-4.34771z" fill="#3fdaf4"/><path d="m546.99659 324.82765s-47.96625-21.66191-98.47836-.109-119.16147-38.28244-119.16147-38.28244l-11.63083 65.93479 151.94144 48.17452 44.43082-4.34771z" opacity=".05"/><path d="m286.7961 527.71112 217.63983 38.39146 42.56066-241.27493q-109.39038 58.69129-217.63983-38.39146z" fill="#3fdaf4"/><path d="m507.48636 378.09052c4.3241 1.26077 2.37186 7.983-1.95939 6.72018-4.3241-1.26077-2.37186-7.98303 1.95939-6.72018z" fill="#fafafa"/><path d="m409.365 514.11332c4.3241 1.26076 2.37186 7.983-1.95939 6.72017-4.32409-1.26076-2.37185-7.98303 1.95939-6.72017z" fill="#fafafa"/><path d="m458.19506 461.80054c4.3241 1.26077 2.37186 7.983-1.95939 6.72018-4.3241-1.26072-2.37186-7.98303 1.95939-6.72018z" fill="#fafafa"/><path d="m421.754 403.585c4.3241 1.26077 2.37186 7.983-1.95939 6.72018-4.32407-1.26079-2.37183-7.98305 1.95939-6.72018z" fill="#fafafa"/><path d="m334.62717 367.90711c4.3241 1.26076 2.37186 7.983-1.95939 6.72017-4.32409-1.26076-2.37186-7.98303 1.95939-6.72017z" fill="#fafafa"/></g></svg>